<?xml version="1.0" encoding="UTF-8"?>
<svg width="151px" height="151px" viewBox="0 0 151 151" version="1.1" xmlns="http://www.w3.org/2000/svg" xmlns:xlink="http://www.w3.org/1999/xlink">
    <title>logo</title>
    <defs>
        <path d="M33.0755412,0.836839458 C31.2083192,1.79194836 29.8881813,3.51580344 28.1874631,4.70386573 C26.4748518,5.89192802 24.4411259,6.54419752 22.3598274,6.77715091 C19.9574143,7.05669497 17.5074287,6.69561722 15.1169088,7.09163798 C12.9523584,7.45271574 10.7521286,8.23310959 8.90869281,9.38622887 C6.20895137,11.0867886 4.35362246,13.7308096 2.43882788,16.1884679 C0.964079253,18.0753903 -0.522562505,20.7776497 0.179132405,23.2236602 C0.726216572,25.1921164 2.24853773,26.9625622 4.17522545,27.6614223 C4.81745469,27.8943757 7.29122657,28.0108524 8.64704386,27.9992047 C11.6560068,27.9642617 16.8533064,27.5798886 20.9564376,25.2736501 C22.7998734,24.2370075 24.0248662,22.6995151 25.4163629,21.1037844 C26.6532488,19.6594734 27.1884399,17.8540846 28.17557,16.2700016 C30.3520135,12.764053 34.9546564,12.72911 38.4155584,11.2382083 C42.3165064,9.56094392 44.6832401,5.46096425 41.5553458,1.86183437 C39.9497727,0.0215025931 37.1429931,-0.269689145 34.8832976,0.196217636 C34.2291752,0.33598967 33.6345185,0.55729539 33.0755412,0.836839458 L33.0755412,0.836839458 Z" id="path-1"></path>
        <path d="M33.0755412,0.836839458 C31.2083192,1.79194836 29.8881813,3.51580344 28.1874631,4.70386573 C26.4748518,5.89192802 24.4411259,6.54419752 22.3598274,6.77715091 C19.9574143,7.05669497 17.5074287,6.69561722 15.1169088,7.09163798 C12.9523584,7.45271574 10.7521286,8.23310959 8.90869281,9.38622887 C6.20895137,11.0867886 4.35362246,13.7308096 2.43882788,16.1884679 C0.964079253,18.0753903 -0.522562505,20.7776497 0.179132405,23.2236602 C0.726216572,25.1921164 2.24853773,26.9625622 4.17522545,27.6614223 C4.81745469,27.8943757 7.29122657,28.0108524 8.64704386,27.9992047 C11.6560068,27.9642617 16.8533064,27.5798886 20.9564376,25.2736501 C22.7998734,24.2370075 24.0248662,22.6995151 25.4163629,21.1037844 C26.6532488,19.6594734 27.1884399,17.8540846 28.17557,16.2700016 C30.3520135,12.764053 34.9546564,12.72911 38.4155584,11.2382083 C42.3165064,9.56094392 44.6832401,5.46096425 41.5553458,1.86183437 C39.9497727,0.0215025931 37.1429931,-0.269689145 34.8832976,0.196217636 C34.2291752,0.33598967 33.6345185,0.55729539 33.0755412,0.836839458 L33.0755412,0.836839458 Z" id="path-3"></path>
        <path d="M20.7729667,3.64519455 C19.546752,5.50577264 19.1964049,7.81383153 18.2154332,9.81571934 C17.2344614,11.829383 15.6812562,13.4662206 13.8711297,14.7615598 C11.7807257,16.245312 9.32829629,17.1402736 7.30796162,18.7417838 C5.48615695,20.1784327 3.85120404,22.0390108 2.71841524,24.0880019 C1.08346233,27.0790578 0.721437041,30.5529219 0.207594697,33.8619247 C-0.189465295,36.4054998 -0.17778706,39.74983 1.71408702,41.7163904 C3.23225758,43.3179007 5.5679046,44.2481897 7.70502162,43.9420186 C8.41739396,43.8360363 10.7880757,42.7055585 12.0376468,41.9990099 C14.8170668,40.4446029 19.4416479,37.4417711 22.0692508,33.1671519 C23.2370743,31.2359189 23.5990996,29.1516004 24.066229,26.9259722 C24.4749672,24.9240844 24.0545507,22.9221966 24.1596548,20.908533 C24.3932195,16.4572765 28.6324189,14.0903386 31.0848482,10.8990939 C33.85259,7.31924748 33.9460158,2.19676984 29.1929742,0.347967569 C26.752223,-0.605873094 23.9961596,0.53638054 22.1276419,2.13789079 C21.5787649,2.58537159 21.134992,3.09173145 20.7729667,3.64519455 L20.7729667,3.64519455 Z" id="path-5"></path>
        <path d="M20.7729667,3.64519455 C19.546752,5.50577264 19.1964049,7.81383153 18.2154332,9.81571934 C17.2344614,11.829383 15.6812562,13.4662206 13.8711297,14.7615598 C11.7807257,16.245312 9.32829629,17.1402736 7.30796162,18.7417838 C5.48615695,20.1784327 3.85120404,22.0390108 2.71841524,24.0880019 C1.08346233,27.0790578 0.721437041,30.5529219 0.207594697,33.8619247 C-0.189465295,36.4054998 -0.17778706,39.74983 1.71408702,41.7163904 C3.23225758,43.3179007 5.5679046,44.2481897 7.70502162,43.9420186 C8.41739396,43.8360363 10.7880757,42.7055585 12.0376468,41.9990099 C14.8170668,40.4446029 19.4416479,37.4417711 22.0692508,33.1671519 C23.2370743,31.2359189 23.5990996,29.1516004 24.066229,26.9259722 C24.4749672,24.9240844 24.0545507,22.9221966 24.1596548,20.908533 C24.3932195,16.4572765 28.6324189,14.0903386 31.0848482,10.8990939 C33.85259,7.31924748 33.9460158,2.19676984 29.1929742,0.347967569 C26.752223,-0.605873094 23.9961596,0.53638054 22.1276419,2.13789079 C21.5787649,2.58537159 21.134992,3.09173145 20.7729667,3.64519455 L20.7729667,3.64519455 Z" id="path-7"></path>
        <path d="M1.10883198,11.5794743 C2.29168658,13.6840811 4.37351067,15.1537785 5.81659329,17.0937792 C7.28333299,19.0337798 8.09950266,21.350023 8.45435904,23.7368117 C8.85652961,26.4880853 8.50167323,29.321662 9.05761489,32.061178 C9.55441382,34.5420273 10.5243546,37.0463918 11.9556087,39.139241 C14.0374328,42.1962117 17.2193116,44.2537881 20.2001052,46.3701524 C22.4711861,48.004456 25.7240362,49.627002 28.5747158,48.7569411 C30.8812823,48.0632439 32.9394493,46.2525766 33.7201333,44.0186365 C33.9685328,43.2661514 34.039504,40.4090595 33.9803613,38.857059 C33.8502473,35.3885731 33.2351629,29.4157226 30.3844833,24.7714787 C29.1070004,22.6903871 27.2499186,21.3147502 25.3100371,19.7745073 C23.5712408,18.3988705 21.430274,17.8227491 19.5140496,16.7410518 C15.3149157,14.3425055 15.125659,9.05159471 13.2449202,5.10104796 C11.139439,0.66844044 6.2305924,-1.94174224 2.0669442,1.77365292 C-0.0740226208,3.66662324 -0.322422087,6.91171522 0.292662305,9.51014031 C0.470090495,10.2626254 0.753975599,10.944565 1.10883198,11.5794743 L1.10883198,11.5794743 Z" id="path-9"></path>
        <path d="M5.81659329,17.0937792 C7.28333299,19.0337798 8.09950266,21.350023 8.45435904,23.7368117 C8.85652961,26.4880853 8.50167323,29.321662 9.05761489,32.061178 C9.55441382,34.5420273 10.5243546,37.0463918 11.9556087,39.139241 C14.0374328,42.1962117 17.2193116,44.2537881 20.2001052,46.3701524 C22.4711861,48.004456 25.7240362,49.627002 28.5747158,48.7569411 C30.8812823,48.0632439 32.9394493,46.2525766 33.7201333,44.0186365 C33.9685328,43.2661514 34.039504,40.4090595 33.9803613,38.857059 C33.8502473,35.3885731 33.2351629,29.4157226 30.3844833,24.7714787 C29.1070004,22.6903871 27.2499186,21.3147502 25.3100371,19.7745073 C23.5712408,18.3988705 21.430274,17.8227491 19.5140496,16.7410518 C15.3149157,14.3425055 15.125659,9.05159471 13.2449202,5.10104796 C11.139439,0.66844044 6.2305924,-1.94174224 2.0669442,1.77365292 C-0.0740226208,3.66662324 -0.322422087,6.91171522 0.292662305,9.51014031 C0.470090495,10.2626254 0.753975599,10.944565 1.10883198,11.5794743 C2.29168658,13.6840811 4.37351067,15.1537785 5.81659329,17.0937792 Z" id="path-11"></path>
    </defs>
    <g id="Design" stroke="none" stroke-width="1" fill="none" fill-rule="evenodd">
        <g id="Scoresheet" transform="translate(-88.000000, -31.000000)">
            <g id="noto-v1:bowling" transform="translate(88.000000, 31.000000)">
                <rect id="ViewBox" x="0" y="0" width="151" height="151"></rect>
                <path d="M137,75.4273918 L113.801159,68.8927961 L122.356174,60.3139237 L107.322948,61.3656036 L115.771763,38.6185934 L90.826519,47.3865319 L98.7679329,31.055951 L84.1595073,44.2787585 L79.7698996,21 L65.6688749,39.4930239 L57.4442604,22.6897779 L56.040058,41.6791002 L35.519822,29.7915718 L40.8652313,47.9300968 L23,48.4736617 L36.7234241,66.9076025 L42.9892351,61.3419704 C51.7448504,58.4468964 69.7988821,54.6537585 86.6729117,64.9105923 C86.6729117,64.9105923 107.216748,80.3667426 104.231343,104 L106.815547,99.0960991 L129.046786,98.7770501 L117.671566,84.5970957 L137,75.4273918 Z" id="Path" fill="#FCC21B" fill-rule="nonzero"></path>
                <path d="M60.5059175,54 C33.1670054,54 11,75.7074475 11,102.494108 C11,129.280768 33.1670054,151 60.5059175,151 C87.8448296,151 110,129.280768 110,102.494108 C110,75.7192322 87.8448296,54 60.5059175,54 Z M52.801315,87.3389625 C51.1207412,88.7766978 49.3573222,89.4602114 47.2388524,88.564573 C45.4280932,87.7985664 44.5641363,86.7143725 44.5522174,84.7345402 C44.5404662,82.9904021 45.7831441,81.2698336 47.4045427,80.5509659 C47.7595935,80.3977645 48.1383144,80.2799174 48.5288703,80.2327785 C50.4343096,79.9735148 52.4699342,80.4684728 53.4285714,82.2715344 C54.1860132,83.662131 54.0794979,86.2311991 52.801315,87.3389625 L52.801315,87.3389625 Z M63.2279737,76.5795165 C61.7012552,75.4835378 61.1095039,74.2932815 61.5473999,72.4666505 C61.9261207,70.8521443 63.4765093,69.5440408 65.1689181,69.2258535 C65.547639,69.1551452 65.9263598,69.1315758 66.3050807,69.1669299 C68.1513449,69.3437006 69.973939,70.2393391 70.4710102,72.1013243 C70.861566,73.5744138 70.1988045,75.9077876 68.7430962,76.6502248 C66.8376569,77.6165715 65.0150628,77.8522658 63.2279737,76.5795165 Z M77.4773461,98.4637347 C75.5364017,100.196088 73.477107,101.009233 71.0272564,99.9250395 C68.9324567,99.0176163 67.9264794,97.6977281 67.9145715,95.3290001 C67.9028093,93.2195359 69.3348476,91.1572105 71.2284519,90.2969263 C71.6426778,90.0965861 72.0805738,89.9669542 72.5303048,89.8962459 C74.7316198,89.5898433 77.0986252,90.1790791 78.2111178,92.3474669 C79.0750747,94.0562508 78.9567244,97.1320617 77.4773461,98.4637347 L77.4773461,98.4637347 Z" id="Shape" fill="#2F2F2F" fill-rule="nonzero"></path>
                <g id="svgIDa-link" transform="translate(104.000000, 43.000000)" fill="#78A3AD" fill-rule="nonzero">
                    <path d="M33.0755412,0.836839458 C31.2083192,1.79194836 29.8881813,3.51580344 28.1874631,4.70386573 C26.4748518,5.89192802 24.4411259,6.54419752 22.3598274,6.77715091 C19.9574143,7.05669497 17.5074287,6.69561722 15.1169088,7.09163798 C12.9523584,7.45271574 10.7521286,8.23310959 8.90869281,9.38622887 C6.20895137,11.0867886 4.35362246,13.7308096 2.43882788,16.1884679 C0.964079253,18.0753903 -0.522562505,20.7776497 0.179132405,23.2236602 C0.726216572,25.1921164 2.24853773,26.9625622 4.17522545,27.6614223 C4.81745469,27.8943757 7.29122657,28.0108524 8.64704386,27.9992047 C11.6560068,27.9642617 16.8533064,27.5798886 20.9564376,25.2736501 C22.7998734,24.2370075 24.0248662,22.6995151 25.4163629,21.1037844 C26.6532488,19.6594734 27.1884399,17.8540846 28.17557,16.2700016 C30.3520135,12.764053 34.9546564,12.72911 38.4155584,11.2382083 C42.3165064,9.56094392 44.6832401,5.46096425 41.5553458,1.86183437 C39.9497727,0.0215025931 37.1429931,-0.269689145 34.8832976,0.196217636 C34.2291752,0.33598967 33.6345185,0.55729539 33.0755412,0.836839458 L33.0755412,0.836839458 Z" id="svgIDa"></path>
                </g>
                <g id="Clipped" transform="translate(104.000000, 43.000000)">
                    <mask id="mask-2" fill="white">
                        <use xlink:href="#path-1"></use>
                    </mask>
                    <g id="svgIDa"></g>
                    <path d="M28.2826082,3.22461171 L26.1180578,4.80869476 C26.1180578,4.80869476 24.5600572,12.7058147 32.2192356,14.9072242 L34.4908385,13.7308096 C34.5027173,13.7424573 27.1170811,11.0984363 28.2826082,3.22461171 Z" id="Path" fill="#ED6C30" fill-rule="nonzero" mask="url(#mask-2)"></path>
                </g>
                <g id="Clipped" transform="translate(104.000000, 43.000000)">
                    <mask id="mask-4" fill="white">
                        <use xlink:href="#path-3"></use>
                    </mask>
                    <g id="svgIDa"></g>
                    <path d="M24.7027748,5.26295387 L23.0972017,5.43766891 C23.0972017,5.43766891 20.4093534,14.5927371 29.6622117,17.4697115 L30.3401204,16.0836388 C30.3401204,16.0836388 22.6214764,13.5444469 24.7027748,5.26295387 Z" id="Path" fill="#ED6C30" fill-rule="nonzero" mask="url(#mask-4)"></path>
                </g>
                <g id="svgIDc-link" transform="translate(82.000000, 9.000000)" fill="#78A3AD" fill-rule="nonzero">
                    <path d="M20.7729667,3.64519455 C19.546752,5.50577264 19.1964049,7.81383153 18.2154332,9.81571934 C17.2344614,11.829383 15.6812562,13.4662206 13.8711297,14.7615598 C11.7807257,16.245312 9.32829629,17.1402736 7.30796162,18.7417838 C5.48615695,20.1784327 3.85120404,22.0390108 2.71841524,24.0880019 C1.08346233,27.0790578 0.721437041,30.5529219 0.207594697,33.8619247 C-0.189465295,36.4054998 -0.17778706,39.74983 1.71408702,41.7163904 C3.23225758,43.3179007 5.5679046,44.2481897 7.70502162,43.9420186 C8.41739396,43.8360363 10.7880757,42.7055585 12.0376468,41.9990099 C14.8170668,40.4446029 19.4416479,37.4417711 22.0692508,33.1671519 C23.2370743,31.2359189 23.5990996,29.1516004 24.066229,26.9259722 C24.4749672,24.9240844 24.0545507,22.9221966 24.1596548,20.908533 C24.3932195,16.4572765 28.6324189,14.0903386 31.0848482,10.8990939 C33.85259,7.31924748 33.9460158,2.19676984 29.1929742,0.347967569 C26.752223,-0.605873094 23.9961596,0.53638054 22.1276419,2.13789079 C21.5787649,2.58537159 21.134992,3.09173145 20.7729667,3.64519455 L20.7729667,3.64519455 Z" id="svgIDc"></path>
                </g>
                <g id="Clipped" transform="translate(82.000000, 9.000000)">
                    <mask id="mask-6" fill="white">
                        <use xlink:href="#path-5"></use>
                    </mask>
                    <g id="svgIDc"></g>
                    <path d="M17.5497738,8.35551882 L16.3585938,10.9697488 C16.3585938,10.9697488 18.9628402,19.3070227 27.2076742,17.5288753 L28.7141665,15.2561439 C28.7141665,15.2561439 20.5043673,16.4690524 17.5497738,8.35551882 L17.5497738,8.35551882 Z" id="Path" fill="#ED6C30" fill-rule="nonzero" mask="url(#mask-6)"></path>
                </g>
                <g id="Clipped" transform="translate(82.000000, 9.000000)">
                    <mask id="mask-8" fill="white">
                        <use xlink:href="#path-7"></use>
                    </mask>
                    <g id="svgIDc"></g>
                    <path d="M15.2725179,12.1120024 L13.8711297,13.0893947 C13.8711297,13.0893947 16.0666379,23.2048161 26.1332766,21.2618073 L26.0632072,19.5896422 C26.0515289,19.601418 17.5848085,21.0851701 15.2725179,12.1120024 L15.2725179,12.1120024 Z" id="Path" fill="#ED6C30" fill-rule="nonzero" mask="url(#mask-8)"></path>
                </g>
                <g id="svgIDe-link" transform="translate(37.000000, 0.000000)" fill="#78A3AD" fill-rule="nonzero">
                    <path d="M1.10883198,11.5794743 C2.29168658,13.6840811 4.37351067,15.1537785 5.81659329,17.0937792 C7.28333299,19.0337798 8.09950266,21.350023 8.45435904,23.7368117 C8.85652961,26.4880853 8.50167323,29.321662 9.05761489,32.061178 C9.55441382,34.5420273 10.5243546,37.0463918 11.9556087,39.139241 C14.0374328,42.1962117 17.2193116,44.2537881 20.2001052,46.3701524 C22.4711861,48.004456 25.7240362,49.627002 28.5747158,48.7569411 C30.8812823,48.0632439 32.9394493,46.2525766 33.7201333,44.0186365 C33.9685328,43.2661514 34.039504,40.4090595 33.9803613,38.857059 C33.8502473,35.3885731 33.2351629,29.4157226 30.3844833,24.7714787 C29.1070004,22.6903871 27.2499186,21.3147502 25.3100371,19.7745073 C23.5712408,18.3988705 21.430274,17.8227491 19.5140496,16.7410518 C15.3149157,14.3425055 15.125659,9.05159471 13.2449202,5.10104796 C11.139439,0.66844044 6.2305924,-1.94174224 2.0669442,1.77365292 C-0.0740226208,3.66662324 -0.322422087,6.91171522 0.292662305,9.51014031 C0.470090495,10.2626254 0.753975599,10.944565 1.10883198,11.5794743 L1.10883198,11.5794743 Z" id="svgIDe"></path>
                </g>
                <g id="Clipped" transform="translate(37.000000, 0.000000)">
                    <mask id="mask-10" fill="white">
                        <use xlink:href="#path-9"></use>
                    </mask>
                    <g id="svgIDe"></g>
                    <path d="M4.06596848,17.0114761 L6.01767857,19.4570527 C6.01767857,19.4570527 15.4095441,21.0090532 17.7634247,12.1085654 L16.3085136,9.53365547 C16.3203421,9.54541305 13.4105198,18.1166886 4.06596848,17.0114761 L4.06596848,17.0114761 Z" id="Path" fill="#ED6C30" fill-rule="nonzero" mask="url(#mask-10)"></path>
                </g>
                <g id="Clipped" transform="translate(37.000000, 0.000000)">
                    <mask id="mask-12" fill="white">
                        <use xlink:href="#path-11"></use>
                    </mask>
                    <g id="svgIDe"></g>
                    <path d="M6.58544878,21.0795987 L6.84567679,22.9255387 C6.84567679,22.9255387 17.7515962,25.7356002 20.8743323,15.00093 L19.2065074,14.2601909 C19.2065074,14.2484449 16.4504561,23.2194781 6.58544878,21.0795987 Z" id="Path" fill="#ED6C30" fill-rule="nonzero" mask="url(#mask-12)"></path>
                </g>
            </g>
        </g>
    </g>
</svg>