
<svg width="130px" height="143px" viewBox="0 0 130 143" version="1.1" xmlns="http://www.w3.org/2000/svg" xmlns:xlink="http://www.w3.org/1999/xlink">
    <defs>
        <path d="M13.9725717,40.7225633 C17.4959616,45.3442329 19.4565575,50.8622262 20.3089906,56.5482803 C21.2750813,63.102648 20.4226483,69.8530866 21.7581267,76.3794442 C22.951533,82.2895792 25.2815166,88.2557345 28.7196631,93.2415356 C33.7206035,100.524166 41.3640864,105.425937 48.5245238,110.467758 C53.9800952,114.361165 61.7940646,118.226561 68.6419432,116.153813 C74.1827579,114.501216 79.1268695,110.187657 81.0022221,104.865735 C81.5989253,103.073087 81.7694119,96.2666284 81.6273397,92.5692927 C81.3147809,84.3063078 79.8372303,70.0771675 72.9893517,59.0131707 C69.9205928,54.0553797 65.4595266,50.7781959 60.7995594,47.1088704 C56.6226376,43.8316865 51.479625,42.4591907 46.8764866,39.8822598 C36.7893624,34.1681956 36.3347315,21.5636423 31.8168364,12.1522424 C26.7590672,1.59242774 14.9670769,-4.62581857 4.96519608,4.22537888 C-0.177816521,8.73500797 -0.77451964,16.4658007 0.703030941,22.6560369 C1.12924746,24.4486845 1.81119388,26.0732713 2.6636269,27.5858177 C5.50507033,32.599629 10.5060108,36.1008938 13.9725717,40.7225633 Z" id="path-sssfvxq3io-1"></path>
    </defs>
    <g id="Design" stroke="none" stroke-width="1" fill="none" fill-rule="evenodd">
        <g id="Scoresheet" transform="translate(-124.000000, -322.000000)">
            <g id="Keglya-Copy" transform="translate(124.193643, 322.372077)">
                <g id="Clipped" transform="translate(64.549316, 70.965437) rotate(30.000000) translate(-64.549316, -70.965437) translate(23.712058, 12.599011)">
                    <mask id="mask-sssfvxq3io-2" fill="white">
                        <use xlink:href="#path-sssfvxq3io-1"></use>
                    </mask>
                    <use id="svgIDe" fill="#78A3AD" xlink:href="#path-sssfvxq3io-1"></use>
                    <path d="M17.1219093,50.4364169 L17.7386568,54.735123 C17.7386568,54.735123 43.5859827,61.2790131 50.9869523,36.2808052 L47.0341617,34.5558199 C47.0341617,34.5284665 40.5022453,55.4196303 17.1219093,50.4364169 Z" id="Path" fill="#ED6C30" fill-rule="nonzero" mask="url(#mask-sssfvxq3io-2)"></path>
                </g>
            </g>
        </g>
    </g>
</svg>